<svg fill="#0F7BFF"  xmlns="http://www.w3.org/2000/svg" viewBox="0 0 47.81 50" id="icon-why-video"><g id="icon-why-video_图层_2" data-name="图层 2"><g id="icon-why-video_图层_1-2" data-name="图层 1"><path d="M46,4.93H25.71V1.81a1.81,1.81,0,0,0-3.61,0V4.93H1.81A1.81,1.81,0,0,0,0,6.74V36.85a1.81,1.81,0,0,0,1.81,1.81h8.52L2.36,47a1.75,1.75,0,0,0-.51,1.28,1.85,1.85,0,0,0,.55,1.28A1.83,1.83,0,0,0,3.64,50a2.11,2.11,0,0,0,1.31-.53L15,39a1.72,1.72,0,0,0,.25-.32H32.79a1.75,1.75,0,0,0,.23.29L43.09,49.43a1.76,1.76,0,0,0,2.55,0,1.8,1.8,0,0,0,.55-1.27,1.76,1.76,0,0,0-.51-1.28l-7.93-8.26H46a1.82,1.82,0,0,0,1.81-1.84V6.74A1.81,1.81,0,0,0,46,4.93ZM44.75,8.41v26.8a.39.39,0,0,1-.39.39H3.45a.39.39,0,0,1-.39-.39V8.41A.39.39,0,0,1,3.45,8H44.37A.39.39,0,0,1,44.75,8.41Z"></path><path d="M28.72,19.62l-6.57-3.8a2.77,2.77,0,0,0-4.3,2.49v7.59a2.91,2.91,0,0,0,1.36,2.58,2.48,2.48,0,0,0,1.31.35,3.22,3.22,0,0,0,1.59-.44l6.6-3.8a2.77,2.77,0,0,0,0-5Zm-3,2.52-4.33,2.48v-5Z"></path></g></g></svg>