<svg fill="#0F7BFF"  xmlns="http://www.w3.org/2000/svg" viewBox="0 0 39.9 36" id="icon-betterservice"><g><g><path d="M38.86,10.55l-1-1.13-.86-1c-1.93-2.19-4.84-5.5-6.21-7A3.77,3.77,0,0,0,28,0H11.91A3.58,3.58,0,0,0,9.07,1.47L6.83,4,4.67,6.46c-1.48,1.68-2.88,3.27-3.59,4.1A4.52,4.52,0,0,0,1,16.31l.09.12c3.07,3.47,6.27,7.06,9.49,10.66l6.59,7.42A3.53,3.53,0,0,0,20,36a3.47,3.47,0,0,0,2.8-1.49l10-11.18c2.62-2.94,4.79-5.38,6.15-6.92A4.67,4.67,0,0,0,38.86,10.55Zm-1.59,4.53-.07.07Q32.62,20.33,28,25.49l-6.82,7.67c-.64.71-.93.77-1.2.77s-.57-.06-1.2-.77l-6.61-7.42L2.74,15.14a2.5,2.5,0,0,1,0-3.26C3.44,11,5,9.22,7.07,6.93L10.53,3l.16-.18c.59-.68.95-.73,1.23-.73H28c.48,0,.69.18,1.28.8,1.48,1.56,4.8,5.34,6.65,7.46.65.75,1.15,1.32,1.35,1.53A2.61,2.61,0,0,1,37.27,15.08Z"></path><path d="M27.83,13l-7.88,9.86-7.88-9.89,0-.05H8.43v1.29a1.47,1.47,0,0,1,1.32.64l.12.16c.87,1.16,3.08,3.84,5.21,6.43C17,23.71,19,26.11,20,27.38c1-1.31,3.06-3.79,5-6.2s4.19-5.1,5-6.23l.06-.08,0,0a1.48,1.48,0,0,1,1.33-.65v-1.3H27.88Z"></path></g></g></svg>