<svg fill="#0F7BFF" xmlns="http://www.w3.org/2000/svg" viewBox="0 0 50.33 50" id="icon-why-design"><g id="icon-why-design_图层_2" data-name="图层 2"><g id="icon-why-design_图层_1-2" data-name="图层 1"><path d="M39.07,25.64,49.53,15.18a2.72,2.72,0,0,0,0-3.84L40,1.83a2.72,2.72,0,0,0-3.84,0L25.76,12.25,14.26.81a2.78,2.78,0,0,0-3.94,0L.82,10.32a2.78,2.78,0,0,0,0,3.94L12.33,25.69,4.83,33.18a2.7,2.7,0,0,0-.62,1,1.49,1.49,0,0,0-.1.26L.74,47.47a1.47,1.47,0,0,0,1.42,1.84h.21l14.1-2a2.68,2.68,0,0,0,1.71-.77l7.44-7.44,10.11,10.1a2.78,2.78,0,0,0,3.94,0l9.51-9.51a2.79,2.79,0,0,0,0-3.94ZM40.24,40.2a1.54,1.54,0,0,0,0-2.18,1.58,1.58,0,0,0-2.18,0L33.5,42.59l-2.34-2.33L36,35.39a1.54,1.54,0,0,0,0-2.18,1.58,1.58,0,0,0-2.18,0L29,38.08,27.91,37,37,27.92l9.8,9.78L37.71,46.8l-2-2ZM6.14,38.33l6.53,6.53L4.14,46.07Zm10.12,6L7.07,35.1l8.38-8.38,10-10,1.26-1.23a1.52,1.52,0,0,0,.13-.16l5.2-5.2,9.19,9.19-5.37,5.37h0L24.64,35.91h0ZM13.78,12.54a1.54,1.54,0,0,0,0-2.18,1.58,1.58,0,0,0-2.18,0L6.45,15.51,3.2,12.29,12.29,3.2l11.2,11.14-9.18,9-1.15-1.14L18,17.35a1.54,1.54,0,0,0,0-2.18,1.57,1.57,0,0,0-2.18,0L11,20,8.63,17.68ZM34.17,8l3.93-3.93,9.19,9.19-3.93,3.93Z"></path></g></g></svg>