 <svg
    xmlns="http://www.w3.org/2000/svg"
    viewBox="0 0 41.29 46"
    id="icon-share"
    fill="#0F7BFF"
  >
    <title>轻分享</title>
    <g id="icon-share_图层_2" data-name="图层 2">
      <g id="icon-share_图层_1-2" data-name="图层 1">
        <path
          d="M34,31.47h0a7.24,7.24,0,0,0-5.25,2.25L14.24,25.34a7.39,7.39,0,0,0,.3-2.11,7.28,7.28,0,0,0-.32-2.13l14.85-8.52a7.18,7.18,0,0,0,4.95,2,7.27,7.27,0,1,0-7.27-7.27,7.19,7.19,0,0,0,.47,2.57L12.6,18.28a7.29,7.29,0,1,0,0,9.93l14.49,8.35A7.27,7.27,0,1,0,34,31.47Zm4,7.27a4,4,0,1,1-4-4A4,4,0,0,1,38,38.73ZM30,7.27a4,4,0,1,1,4,4A4,4,0,0,1,30,7.27ZM7.24,19.3a4,4,0,0,1,3.47,5.91h0a4,4,0,1,1-6.87-4A3.94,3.94,0,0,1,7.24,19.3Z"
        ></path>
      </g>
    </g>
  </svg>