  <svg xmlns="http://www.w3.org/2000/svg" viewBox="0 0 40.25 46" id="icon-easy"  fill="#0F7BFF">
    <title>易上手</title>
    <g id="icon-easy_图层_2" data-name="图层 2">
      <g id="icon-easy_图层_1-2" data-name="图层 1">
        <path
          d="M40.25,12.21v-.07h0a1,1,0,0,0,0-.2.46.46,0,0,0,0-.07l0-.09a1.45,1.45,0,0,0-.08-.18h0l0-.07h0l0-.05h0l0-.06h0l-.06-.08-.06-.08-.07-.08L39.64,11l-.17-.12L20.91.21a1.58,1.58,0,0,0-1.57,0L.79,10.92a1.5,1.5,0,0,0-.33.26l-.07.08-.06.08-.07.09v0l0,.07h0l0,.08a1.44,1.44,0,0,0-.07.18v0l0,.06v0a1.54,1.54,0,0,0,0,.31V33.72a1.58,1.58,0,0,0,.78,1.36L19.34,45.79a1.58,1.58,0,0,0,1.57,0L39.47,35.08a1.58,1.58,0,0,0,.78-1.36V12.3S40.25,12.24,40.25,12.21ZM18.56,24.45V41.72L3.13,32.81V15.07Zm18.56-9.39V32.81L21.69,41.72V24.37ZM35.6,12.31,20.06,21.69,4.64,12.32,20.12,3.38Zm-35.28,0h0Z"
        ></path>
      </g>
    </g>
  </svg>