  <svg xmlns="http://www.w3.org/2000/svg" viewBox="0 0 41.53 46" id="icon-fun"  fill="#0F7BFF">
    <title>高互动</title>
    <g id="icon-fun_图层_2" data-name="图层 2">
      <g id="icon-fun_图层_1-2" data-name="图层 1">
        <path
          d="M40.68,11.5C39.26,9,36.15,7.68,31.91,7.68a22.68,22.68,0,0,0-2.38.13C27.32,2.85,24.14,0,20.76,0S14.2,2.85,12,7.82a22.61,22.61,0,0,0-2.38-.13H8.47l.05,0C4.85,7.93,2.14,9.25.85,11.5-.84,14.42,0,18.61,3.23,23,0,27.4-.84,31.58.84,34.5,2.26,37,5.38,38.32,9.61,38.32A22.7,22.7,0,0,0,12,38.18c2.21,5,5.39,7.82,8.77,7.82s6.56-2.84,8.77-7.81a22.7,22.7,0,0,0,2.39.13c4.23,0,7.35-1.36,8.77-3.82,1.69-2.92.82-7.11-2.38-11.5C41.5,18.61,42.37,14.42,40.68,11.5ZM26.59,12.91c-.72-.41-1.46-.82-2.23-1.2a30.92,30.92,0,0,1,3.43-.87,31.07,31.07,0,0,1,1,3.4C28,13.77,27.32,13.33,26.59,12.91Zm5.75,7.56A31.06,31.06,0,0,1,34.81,23a31,31,0,0,1-2.46,2.54c0-.85.07-1.7.07-2.54S32.39,21.31,32.34,20.47Zm-.39,9a36.54,36.54,0,0,0,4.56-4.26l.14.21a13,13,0,0,1,2,4.65,4.45,4.45,0,0,1-.38,3.07,4.26,4.26,0,0,1-2.13,1.73,12.59,12.59,0,0,1-5.64.67A36.55,36.55,0,0,0,31.95,29.46Zm0-19.35v.3a11.12,11.12,0,0,1,4.27.72,4.25,4.25,0,0,1,2.13,1.73,4.45,4.45,0,0,1,.38,3.07,13,13,0,0,1-2,4.65l-.14.21A36.57,36.57,0,0,0,32,16.54a36.62,36.62,0,0,0-1.41-6.07c.47,0,.93-.05,1.37-.05v-.3ZM20.76,35.92a36.56,36.56,0,0,0,6,1.82l-.11.22h0a13,13,0,0,1-3,4.1,4,4,0,0,1-5.7,0,13,13,0,0,1-3-4.1l-.11-.23A36.56,36.56,0,0,0,20.76,35.92Zm0-25.84a36.67,36.67,0,0,0-6-1.82L14.91,8a13,13,0,0,1,3-4.1,4,4,0,0,1,5.7,0,13,13,0,0,1,3,4.1l.11.22A36.64,36.64,0,0,0,20.76,10.08Zm0,22.88a42.4,42.4,0,0,1-4.46-2.23A42.2,42.2,0,0,1,12.13,28a42.64,42.64,0,0,1,0-10,42.49,42.49,0,0,1,8.63-5,42.52,42.52,0,0,1,8.63,5,42.36,42.36,0,0,1,.29,5,42.45,42.45,0,0,1-.29,5,42.44,42.44,0,0,1-4.17,2.74A42.46,42.46,0,0,1,20.76,33ZM9.18,25.54A31.07,31.07,0,0,1,6.72,23a31.11,31.11,0,0,1,2.46-2.54c0,.84-.07,1.69-.07,2.54S9.13,24.69,9.18,25.54Zm.39-9A36.59,36.59,0,0,0,5,20.79l-.14-.21a13,13,0,0,1-2-4.65,4.45,4.45,0,0,1,.38-3.07,4.26,4.26,0,0,1,2.13-1.73A12.59,12.59,0,0,1,11,10.47,36.64,36.64,0,0,0,9.57,16.54ZM2.83,30.06a13,13,0,0,1,2-4.65L5,25.21a36.62,36.62,0,0,0,4.56,4.26A36.57,36.57,0,0,0,11,35.54a12.57,12.57,0,0,1-5.64-.67,4.25,4.25,0,0,1-2.13-1.73A4.45,4.45,0,0,1,2.83,30.06Zm9.94-15.82a31,31,0,0,1,1-3.4,31,31,0,0,1,3.43.87c-.77.39-1.52.79-2.23,1.21S13.48,13.78,12.77,14.24Zm2.16,18.85c.71.41,1.46.81,2.23,1.2a30.89,30.89,0,0,1-3.43.87,31,31,0,0,1-1-3.4C13.48,32.23,14.2,32.67,14.94,33.09Zm13.81-1.33a31,31,0,0,1-1,3.4,31,31,0,0,1-3.43-.87c.77-.39,1.52-.79,2.23-1.21S28,32.22,28.75,31.76Z"
        ></path>
      </g>
    </g>
  </svg>