<svg fill="#dcdcdc" xmlns="http://www.w3.org/2000/svg" viewBox="0 0 80.18 80" id="icon-fingerprint">
<title>指纹</title><g id="icon-fingerprint_图层_2" data-name="图层 2"><g id="icon-fingerprint_图层_1-2" data-name="图层 1"><path fill="#dcdcdc" class="cls-1" d="M22.48,40.11C22.48,53.32,32.19,64,44.17,64s21.7-10.7,21.71-23.91v0c0-13.21-9.72-23.92-21.7-23.92S22.48,26.9,22.48,40.11Z"></path><path class="cls-2" d="M18.22,77.57H3.64a1.22,1.22,0,0,1-1.22-1.22V61.71a1.21,1.21,0,1,0-2.42,0V78.78A1.22,1.22,0,0,0,1.22,80h17a1.22,1.22,0,0,0,0-2.43Z"></path><path class="cls-2" d="M1.22,19.88a1.2,1.2,0,0,0,1.21-1.21v-15A1.22,1.22,0,0,1,3.64,2.43H18.23a1.22,1.22,0,1,0,0-2.43h-17A1.22,1.22,0,0,0,0,1.22V18.66A1.22,1.22,0,0,0,1.22,19.88Z"></path><path class="cls-2" d="M79,0H62a1.22,1.22,0,0,0,0,2.43H76.53a1.22,1.22,0,0,1,1.22,1.22v15a1.22,1.22,0,0,0,2.43,0V1.22A1.22,1.22,0,0,0,79,0Z"></path><path class="cls-2" d="M79,60.49a1.22,1.22,0,0,0-1.22,1.22V76.35a1.22,1.22,0,0,1-1.22,1.22H62A1.22,1.22,0,0,0,62,80H79a1.22,1.22,0,0,0,1.22-1.22V61.71A1.22,1.22,0,0,0,79,60.49Z"></path><path  class="cls-2" d="M14.31,40.67a.77.77,0,0,0,.76.79h.78a.78.78,0,0,0,.76-.8h0c0-14.78,11.52-26.8,25.66-26.8s25.66,12,25.66,26.8h0a.78.78,0,0,0,.76.8h.76a.77.77,0,0,0,.76-.79v0A29.67,29.67,0,0,0,62,20,27.12,27.12,0,0,0,22.5,20a29.67,29.67,0,0,0-8.19,20.64Z"></path><path  class="cls-2" d="M28.88,41.18c.49-7.58,6.55-13.6,13.94-13.6A14.24,14.24,0,0,1,56.7,40.45a1.08,1.08,0,1,0,2.14-.25c-.94-8.35-7.77-14.87-16-14.87-8.58,0-15.6,7-16.09,15.86a1.09,1.09,0,0,0-.05.24c0,.11-.24,10.86-7.49,16.1a1.12,1.12,0,0,0-.25,1.57,1.14,1.14,0,0,0,.92.47,1.09,1.09,0,0,0,.65-.21c8.17-5.92,8.41-17.41,8.42-17.89A1.08,1.08,0,0,0,28.88,41.18Z"></path><path   class="cls-2" d="M43,42.27V38.89a1.12,1.12,0,1,0-2.24,0V42.3a29.18,29.18,0,0,1-1.21,7.49,37,37,0,0,1-8.88,15.46,1.12,1.12,0,0,0,0,1.59,1.15,1.15,0,0,0,.78.31,1,1,0,0,0,.79-.35,39.33,39.33,0,0,0,9.44-16.49A31.16,31.16,0,0,0,43,42.27Z"></path><path  class="cls-2" d="M57,47.05a1.14,1.14,0,0,0-1.24,1c0,.12-1.34,11.91-8.44,18.86a1.12,1.12,0,1,0,1.58,1.6C56.59,61,58,48.81,58,48.29A1.14,1.14,0,0,0,57,47.05Z"></path><path class="cls-2" d="M64.23,41.32c0-.26,0-.52,0-.78,0-12.55-9.77-22.77-21.8-22.77S20.65,28,20.65,40.54c0,.25,0,.5,0,.74a1.08,1.08,0,0,0,0,.23c0,.07.24,6.16-4.13,8.9A1.11,1.11,0,0,0,16.14,52a1.13,1.13,0,0,0,1,.53,1.25,1.25,0,0,0,.6-.17c5.47-3.44,5.2-10.61,5.18-10.91a1.09,1.09,0,0,0-.06-.26c0-.2,0-.41,0-.61C22.8,29.23,31.61,20,42.45,20S62.1,29.22,62.1,40.54c0,.24,0,.48,0,.72a1.07,1.07,0,0,0-.05.2c0,.16-1.11,15.43-6.14,22.48a1.12,1.12,0,0,0,.26,1.57,1.12,1.12,0,0,0,1.57-.25c5.4-7.57,6.5-23,6.55-23.64A1.08,1.08,0,0,0,64.23,41.32Z"></path><path class="cls-2" d="M51.26,41.44a1.08,1.08,0,0,0-.12-.59,8.55,8.55,0,1,0-17.09.22c0,.08,0,.15,0,.22a1,1,0,0,0,0,.16c0,.13-.4,13.21-10.19,20.37a1.12,1.12,0,0,0-.24,1.57,1.1,1.1,0,0,0,.91.46,1.29,1.29,0,0,0,.67-.2,27.1,27.1,0,0,0,9.62-14,31.66,31.66,0,0,0,1.49-8.1,1.1,1.1,0,0,0,0-.24c0-.06,0-.13,0-.19a6.39,6.39,0,1,1,12.77,0c0,.14,0,.26,0,.39-.27,2.2-2.51,18.46-10.53,25.28a1.13,1.13,0,0,0-.13,1.59,1.12,1.12,0,0,0,.86.4,1.1,1.1,0,0,0,.73-.27c3.91-3.32,7-8.89,9.21-16.55A67.14,67.14,0,0,0,51.26,41.44Z"></path></g></g></svg>